<svg xmlns="http://www.w3.org/2000/svg" xmlns:xlink="http://www.w3.org/1999/xlink" version="1.1" id="Calque_1" x="0px" y="0px" viewBox="0 0 391.14 65.7" style="enable-background:new 0 0 391.14 65.7;" xml:space="preserve" width="391.14"  height="65.7" >
<style type="text/css">
	.st0{fill:#4C8C1E;}
	.st1{fill-rule:evenodd;clip-rule:evenodd;fill:#FFFFFF;}
	.st2{fill-rule:evenodd;clip-rule:evenodd;fill:#404041;}
</style>
<g>
	<rect y="1.05" class="st0" width="64.65" height="64.65"/>
	<g>
		<path class="st1" d="M40.2,31.79c-4.65,2.57-9.8,1.8-9.8,1.8c-10.1-1.47-7.01-10.96-7.01-10.96c4-11.3,19.82-10.43,19.82-10.43    c-2.03-1.06-1.86-4.97-1.86-4.97c-10.63,3.13-20.67,0-20.67,0c0.46,4.77-0.75,5.59-0.75,5.59c3.19-1.64,12.72-0.96,12.72-0.96    c-5.4,1.2-9.73,7.02-9.73,7.02S12.58,35.51,30.7,37.03c0,0,6.74,0.07,9.19-4.81L40.2,31.79"/>
		<path class="st1" d="M40.22,17.99v-1.27c0,0-1.22-0.04-1.22,1.27H40.22 M24.58,20.58H40.2v-1.41H37.1c0.1-3.41,3.4-3.95,3.4-3.95    c1.22-0.47,2.11-1.47,2.11-1.47v8.3H26.93C25.58,20.92,24.58,20.58,24.58,20.58"/>
		<path class="st1" d="M20.06,28.09h26.28v-7.1c0,0-2.28,2.23-3.19,2.64v0.35h1.02v2.13H18.1C18.1,26.11,20.06,27.33,20.06,28.09"/>
		<path class="st1" d="M34.77,17.25c0,0.65-0.51,1.18-1.14,1.18c-0.63,0-1.14-0.53-1.14-1.18c0-0.65,0.51-1.18,1.14-1.18    C34.26,16.07,34.77,16.6,34.77,17.25"/>
		<path class="st1" d="M44.7,29.84c0,0.65-0.51,1.18-1.14,1.18c-0.63,0-1.14-0.53-1.14-1.18c0-0.65,0.51-1.18,1.14-1.18    C44.19,28.66,44.7,29.19,44.7,29.84"/>
		<path class="st1" d="M10.94,55.24h0.57c1.31,0,3.54,0.08,3.54-2.06c0-2.34-2.2-2.11-3.66-2.11h-0.45V55.24 M10.94,47.3h0.5    c1.18,0,2.41-0.23,2.41-1.88c0-1.77-1.39-1.88-2.59-1.88h-0.32V47.3z M6.49,59.1V39.68h6.36c3.05,0,5.09,1.34,5.09,5.05    c0,1.75-0.5,3.17-1.89,3.96v0.05c2.45,0.36,3.5,2.24,3.5,4.95c0,4.07-3.07,5.41-6.21,5.41H6.49z"/>
		<polygon class="st1" points="21.26,39.68 25.84,39.68 34.24,51.56 34.29,51.56 34.29,39.68 38.87,39.68 38.87,59.1 34.29,59.1     25.89,47.2 25.84,47.2 25.84,59.1 21.26,59.1   "/>
		<path class="st1" d="M49.56,45.68h-0.05l-1.83,6.18h3.69L49.56,45.68z M46.46,55.73l-1.18,3.37h-4.71l6.56-19.42h4.85l6.42,19.42    h-4.73l-1.11-3.37H46.46z"/>
		<path class="st2" d="M313.43,22.2h-8.9V0.88c0,0,2.7,1.9,3.6,1.9c0,0-0.43,0.45-0.43,1.44v14.69c0,0,1.33-0.23,2.19-1.09    C309.89,17.82,311.45,21.27,313.43,22.2"/>
		<path class="st2" d="M289.5,16.46c0,0-2.77,1.94-3.24,2.42h3.23L289.5,16.46 M302.38,1.23v20.89h-9.27v5H270.8    c0,0-4.37,0.03-6.02-5c0,0,1.24,1.82,3.74,1.82h21.16v-1.82l-7.35-0.01c0,0,0-1.65,0.38-3.17c0.38-1.52,1.46-2.22,1.9-2.22    c0.44,0,1.78-1.21,1.78-1.52c0-0.32,1.02-1.21,1.97-1.21c0.95,0,4.77-2.21,4.77-2.21v7.12h6.15V6.17c0,0,0.13-1.36-1.35-1.36    C297.93,4.81,301.91,2.34,302.38,1.23"/>
		<path class="st2" d="M271.76,18.87c0-1.77-1.72-1.72-1.72-1.72H250.2l-1.09,1.76L271.76,18.87 M276.1,22.2h-27.53v6.06    c0,0-1.77-1.46-3.85-1.46c0,0-5.88-0.94-5.88-4.6h-16.61v-7.24c0,0-2.24,0.04-2.24,2.24v5.01h-18.56c0,0-3.98-0.43-5.02-6.54    c0,0,2.71,3.31,4.64,3.31l15.53,0V15.7c0,0-0.17-2.51,3.37-3.36c0,0,5.63-2.07,5.63-4.62l0,11.27h12.65V15.2    c0,0,0.25-1.26-0.71-2.21c0,0,4.35-2.39,4.35-3.73v11.84c0,0,0.17,2.3,3.31,2.3v-4.73l12.55-18.54c0,0,0.75,4.27,2.72,5.73    c0,0-2.22-0.42-3.13,0.88c-0.92,1.29-4.81,7.07-4.81,7.07h18.28C270.78,13.83,276.1,14.14,276.1,22.2"/>
		<path class="st2" d="M219.84,25.43c0,1.14-0.92,2.06-2.06,2.06c-1.14,0-2.06-0.92-2.06-2.06c0-1.14,0.92-2.06,2.06-2.06    C218.92,23.37,219.84,24.29,219.84,25.43"/>
		<path class="st2" d="M215.2,26.04c0,1.14-0.92,2.06-2.06,2.06c-1.14,0-2.06-0.92-2.06-2.06c0-1.13,0.92-2.06,2.06-2.06    C214.28,23.99,215.2,24.91,215.2,26.04"/>
		<path class="st2" d="M391.14,22.2h-8.9V0.88c0,0,2.7,1.9,3.6,1.9c0,0-0.43,0.45-0.43,1.44v14.69c0,0,1.34-0.23,2.19-1.09    C387.6,17.82,389.15,21.27,391.14,22.2"/>
		<path class="st2" d="M369.2,9.64c0,1.72-4.73,3.34-4.73,3.34c1.35,0,1.35,2.29,1.35,2.29v3.7h-10.47V8.45    c0,1.93-5.58,4.17-5.58,4.17c2.4,0,2.14,1.3,2.14,1.3v8.02c-2.87,0-2.81-2.82-2.81-2.82v-5.32h-18.95l4.23-7.75    c0.62-1.25,2.4-1.13,2.4-1.13c-1.28-0.29-3.11-4.19-3.11-4.19l-9.8,16.61h22.29v1.63h-22.92l-3.88,6.74    c0-0.79,4.51-1.91,4.51-1.91l1.61-1.61h20.75v1.2c0,2.24,3.04,2.62,3.04,2.62s0.8,0.07,3.57,0.07c2.53,0,2.61,1.2,2.61,1.2V22.2    h24.65V0c0,0.89-4.84,3.34-4.84,3.34c0.94,0,0.88,1.82,0.88,1.82v13.81h-6.97V9.59V9.64"/>
		<path class="st2" d="M369.56,25.11c0,1.03-0.84,1.87-1.87,1.87c-1.04,0-1.87-0.84-1.87-1.87s0.83-1.87,1.87-1.87    C368.72,23.23,369.56,24.07,369.56,25.11"/>
		<path class="st2" d="M354.17,2.21c0,1.03-0.84,1.87-1.87,1.87c-1.04,0-1.87-0.84-1.87-1.87c0-1.04,0.83-1.87,1.87-1.87    C353.33,0.34,354.17,1.17,354.17,2.21"/>
		<path class="st2" d="M188.34,22.18h-8.91V0.86c0,0,2.71,1.9,3.61,1.9c0,0-0.43,0.45-0.43,1.44v14.7c0,0,1.33-0.24,2.19-1.1    C184.79,17.8,186.35,21.25,188.34,22.18"/>
		<path class="st2" d="M177.29,1.46v20.79h-32.76v4.32h-12.19c0,0-4.02-0.1-4.02-4.41c0,0-0.1,1.27,2.64,1.27h10.44v-9.31    c0,0-0.21-1.36-1.36-1.36c0,0,3.72-2.25,4.46-3.64v9.87h20.72v-2.1h-15.56c0,0,2.48-1.79,2.48-3.82c0,0,0,0.7,0.98,0.7h14.72v5.22    h6.09V5.57c0,0,0.2-1.19-0.74-1.19C173.21,4.38,177.29,2.74,177.29,1.46"/>
		<path class="st2" d="M145.01,5.21c0,1.03-0.83,1.86-1.86,1.86c-1.03,0-1.87-0.83-1.87-1.86c0-1.03,0.83-1.86,1.87-1.86    C144.18,3.36,145.01,4.18,145.01,5.21"/>
		<path class="st2" d="M159.69,24.81c0,1.08-0.87,1.95-1.95,1.95c-1.08,0-1.95-0.87-1.95-1.95c0-1.07,0.87-1.95,1.95-1.95    C158.83,22.86,159.69,23.74,159.69,24.81"/>
		<path class="st2" d="M138.44,22.26h-8.9V0.93c0,0,2.7,1.9,3.6,1.9c0,0-0.43,0.45-0.43,1.44v14.7c0,0,1.33-0.24,2.19-1.09    C134.9,17.88,136.46,21.32,138.44,22.26"/>
		<path class="st2" d="M125.03,10.31v11.95h-14.52v4.18h-13.1c0,0-3.35-0.3-3.35-4.07c0,0,1.17,1.09,2.21,1.09h10.98v-6.66    c0,0,0.07-0.97-0.63-0.97c0,0,3.89-2.37,3.89-4v7.13h10.97v-3.7c0,0-0.03-0.85-0.85-0.85c0,0,4.39-3.36,4.39-4.22V10.31"/>
		<path class="st2" d="M126.53,8.06V5.21h-2.68c0,0,0.32-1.63,2.68-1.63V0.73c0,0-3.44-0.07-4.62,1.74c0,0-2.81,5.56-4.1,5.56    L126.53,8.06"/>
		<path class="st2" d="M102.06,22.25H78.09c0,0,1.19-4.3,1.34-4.81c0.3-1.04,1.73-2.2,2.97-2.59c1.94-0.6,4.51-1.48,5.01-1.98    c0,0,1.47-0.62,1.47-1.94c0,0,0.68,3.52,1.52,4.36l-7.25,2.51c0,0-1.09,0.23-1.09,1.19H97.9c0,0,1.11,0.19,2.13-1.58    C100.02,17.4,101.16,21.61,102.06,22.25"/>
		<path class="st2" d="M91.17,26.6c0,0.94-0.77,1.71-1.71,1.71c-0.95,0-1.71-0.76-1.71-1.71c0-0.94,0.76-1.7,1.71-1.7    C90.4,24.9,91.16,25.66,91.17,26.6"/>
		<path class="st2" d="M85.86,25.94c0,0.94-0.77,1.71-1.71,1.71c-0.94,0-1.71-0.77-1.71-1.71c0-0.94,0.76-1.7,1.71-1.7    C85.09,24.23,85.86,25,85.86,25.94"/>
		<path class="st2" d="M241.17,5.22c0,1.03-0.84,1.86-1.86,1.86c-1.03,0-1.85-0.83-1.85-1.86c0-1.03,0.83-1.86,1.85-1.86    C240.33,3.36,241.17,4.18,241.17,5.22"/>
		<path class="st2" d="M84.14,55.58h0.54c1.24,0,3.34,0.06,3.34-1.71c0-1.95-2.08-1.76-3.45-1.76h-0.43V55.58 M84.14,48.98h0.48    c1.11,0,2.27-0.19,2.27-1.56c0-1.48-1.31-1.57-2.44-1.57h-0.3V48.98z M79.94,58.8V42.63h6c2.87,0,4.8,1.12,4.8,4.2    c0,1.46-0.47,2.64-1.78,3.3v0.04c2.32,0.31,3.3,1.87,3.3,4.12c0,3.39-2.89,4.5-5.85,4.5H79.94z"/>
		<path class="st2" d="M97.61,53.31c0,1.39,0.92,2.47,2.51,2.47c1.59,0,2.51-1.07,2.51-2.47c0-1.35-0.92-2.49-2.51-2.49    C98.53,50.82,97.61,51.95,97.61,53.31 M106.4,58.8h-3.9v-1.22h-0.04c-0.68,1.09-2.04,1.58-3.32,1.58c-3.26,0-5.55-2.72-5.55-5.88    c0-3.15,2.25-5.85,5.51-5.85c1.27,0,2.59,0.47,3.41,1.44V47.8h3.9V58.8z"/>
		<path class="st2" d="M112.9,49.21h0.05c0.9-1.33,1.99-1.78,3.52-1.78c2.96,0,4.14,1.86,4.14,4.56v6.8h-3.9v-5.36    c0-1.05,0.17-2.9-1.76-2.9c-1.59,0-2.04,1.18-2.04,2.55v5.7H109v-11h3.9V49.21"/>
		<path class="st2" d="M126.55,53.31c0,1.39,0.92,2.47,2.51,2.47c1.58,0,2.51-1.07,2.51-2.47c0-1.35-0.93-2.49-2.51-2.49    C127.47,50.82,126.55,51.95,126.55,53.31 M135.34,64.28h-3.9v-6.54c-0.81,0.96-2.14,1.41-3.41,1.41c-3.28,0-5.51-2.65-5.51-5.83    c0-3.13,2.29-5.9,5.55-5.9c1.28,0,2.64,0.52,3.32,1.61h0.04V47.8h3.9V64.28z"/>
		<path class="st2" d="M141.62,47.8v5.87c0,1.39,0.35,2.38,1.95,2.38c1.61,0,1.95-0.99,1.95-2.38V47.8h3.9v6.62    c0,3.63-2.55,4.74-5.85,4.74c-3.3,0-5.85-1.11-5.85-4.74V47.8H141.62"/>
		<path class="st2" d="M159.59,51.7c-0.19-1.05-1.16-1.74-2.21-1.74c-1.13,0-2.08,0.6-2.32,1.74H159.59 M163.21,53.95H155    c0,1.59,0.83,2.44,2.44,2.44c0.83,0,1.44-0.28,1.86-1.01h3.75c-0.62,2.59-3.08,3.77-5.59,3.77c-3.65,0-6.37-2.06-6.37-5.85    c0-3.67,2.51-5.88,6.09-5.88c3.82,0,6.02,2.36,6.02,6.11V53.95z"/>
		<polygon class="st2" points="172.44,42.63 176.64,42.63 184.33,52.51 184.38,52.51 184.38,42.63 188.58,42.63 188.58,58.8     184.38,58.8 176.68,48.89 176.64,48.89 176.64,58.8 172.44,58.8   "/>
		<path class="st2" d="M194.47,53.31c0,1.39,0.92,2.47,2.51,2.47c1.59,0,2.51-1.07,2.51-2.47c0-1.35-0.92-2.49-2.51-2.49    C195.4,50.82,194.47,51.95,194.47,53.31 M203.26,58.8h-3.9v-1.22h-0.04c-0.69,1.09-2.04,1.58-3.32,1.58    c-3.26,0-5.56-2.72-5.56-5.88c0-3.15,2.26-5.85,5.51-5.85c1.27,0,2.6,0.47,3.41,1.44V47.8h3.9V58.8z"/>
		<polygon class="st2" points="210.13,58.8 206.22,58.8 206.22,51.01 204.96,51.01 204.96,47.8 206.22,47.8 206.22,44.5     210.13,44.5 210.13,47.8 212.33,47.8 212.33,51.01 210.13,51.01   "/>
		<path class="st2" d="M217.48,58.8h-3.9v-11h3.9V58.8z M217.71,43.57c0,1.2-0.98,2.19-2.19,2.19c-1.2,0-2.18-0.99-2.18-2.19    c0-1.2,0.98-2.19,2.18-2.19C216.73,41.38,217.71,42.37,217.71,43.57"/>
		<path class="st2" d="M223.35,53.31c0,1.39,0.93,2.47,2.52,2.47c1.58,0,2.5-1.07,2.5-2.47c0-1.35-0.92-2.49-2.5-2.49    C224.28,50.82,223.35,51.95,223.35,53.31 M232.49,53.31c0,3.73-3.09,5.85-6.62,5.85c-3.52,0-6.63-2.1-6.63-5.85    c0-3.75,3.09-5.87,6.63-5.87C229.4,47.43,232.49,49.56,232.49,53.31"/>
		<path class="st2" d="M238.15,49.21h0.04c0.9-1.33,1.99-1.78,3.52-1.78c2.95,0,4.14,1.86,4.14,4.56v6.8h-3.9v-5.36    c0-1.05,0.17-2.9-1.76-2.9c-1.59,0-2.04,1.18-2.04,2.55v5.7h-3.9v-11h3.9V49.21"/>
		<path class="st2" d="M251.65,53.31c0,1.39,0.92,2.47,2.51,2.47c1.59,0,2.51-1.07,2.51-2.47c0-1.35-0.92-2.49-2.51-2.49    C252.57,50.82,251.65,51.95,251.65,53.31 M260.44,58.8h-3.9v-1.22h-0.04c-0.69,1.09-2.04,1.58-3.33,1.58    c-3.25,0-5.55-2.72-5.55-5.88c0-3.15,2.25-5.85,5.51-5.85c1.26,0,2.59,0.47,3.41,1.44V47.8h3.9V58.8z"/>
		<rect x="263.04" y="41" class="st2" width="3.9" height="17.8"/>
		<path class="st2" d="M277.18,51.7c-0.19-1.05-1.16-1.74-2.21-1.74c-1.14,0-2.08,0.6-2.32,1.74H277.18 M280.81,53.95h-8.21    c0,1.59,0.83,2.44,2.44,2.44c0.83,0,1.44-0.28,1.86-1.01h3.76c-0.62,2.59-3.09,3.77-5.6,3.77c-3.65,0-6.36-2.06-6.36-5.85    c0-3.67,2.5-5.88,6.09-5.88c3.82,0,6.02,2.36,6.02,6.11V53.95z"/>
		<path class="st2" d="M293.33,53.31c0,1.39,0.92,2.47,2.51,2.47c1.58,0,2.51-1.07,2.51-2.47c0-1.35-0.93-2.49-2.51-2.49    C294.25,50.82,293.33,51.95,293.33,53.31 M298.22,57.58h-0.04c-0.69,1.09-2.04,1.58-3.32,1.58c-3.26,0-5.55-2.72-5.55-5.88    c0-3.15,2.25-5.85,5.51-5.85c1.26,0,2.59,0.47,3.4,1.43V41h3.9v17.8h-3.9V57.58z"/>
		<polygon class="st2" points="310.85,42.63 306.9,49.73 304.42,49.73 307.2,42.63   "/>
		<path class="st2" d="M319.68,47.63h-0.04l-1.74,5.15h3.49L319.68,47.63z M316.75,55.99l-1.12,2.81h-4.45l6.21-16.17h4.58    l6.09,16.17h-4.48l-1.05-2.81H316.75z"/>
		<rect x="329.29" y="41" class="st2" width="3.9" height="17.8"/>
		<path class="st2" d="M339.04,53.22c0,1.39,0.93,2.46,2.51,2.46c1.58,0,2.51-1.07,2.51-2.46c0-1.35-0.93-2.49-2.51-2.49    C339.96,50.74,339.04,51.87,339.04,53.22 M347.83,57.72c0,4.67-2.31,6.56-6.37,6.56c-2.53,0-5.92-1.31-6.26-4.21h4.37    c0.1,0.39,0.39,0.67,0.73,0.84c0.35,0.17,0.75,0.25,1.12,0.25c2.1,0,2.51-1.37,2.51-3.15v-0.51c-1.01,1.01-2.04,1.5-3.49,1.5    c-3.22,0-5.42-2.45-5.42-5.62c0-3.22,2.27-5.96,5.64-5.96c1.29,0,2.47,0.43,3.24,1.52h0.04V47.8h3.9V57.72z"/>
		<path class="st2" d="M357.95,51.7c-0.2-1.05-1.16-1.74-2.21-1.74c-1.14,0-2.08,0.6-2.31,1.74H357.95 M354.56,46.17l-1.74-1.26    l3.02-3.69l2.38,1.72L354.56,46.17z M361.58,53.95h-8.21c0,1.59,0.84,2.44,2.44,2.44c0.83,0,1.44-0.28,1.86-1.01h3.75    c-0.63,2.59-3.09,3.77-5.6,3.77c-3.65,0-6.36-2.06-6.36-5.85c0-3.67,2.51-5.88,6.09-5.88c3.82,0,6.03,2.36,6.03,6.11V53.95z"/>
		<path class="st2" d="M367.26,49.6h0.04c0.75-1.35,2.04-1.95,3.57-1.95h0.75v3.75c-0.53-0.3-1.05-0.37-1.65-0.37    c-2.17,0-2.7,1.43-2.7,3.32v4.44h-3.9v-11h3.9V49.6"/>
		<path class="st2" d="M376.97,58.8h-3.9v-11h3.9V58.8z M377.2,43.57c0,1.2-0.98,2.19-2.19,2.19c-1.2,0-2.19-0.99-2.19-2.19    c0-1.2,0.99-2.19,2.19-2.19C376.22,41.38,377.2,42.37,377.2,43.57"/>
		<path class="st2" d="M387.21,51.7c-0.19-1.05-1.16-1.74-2.21-1.74c-1.13,0-2.08,0.6-2.32,1.74H387.21 M390.83,53.95h-8.21    c0,1.59,0.84,2.44,2.44,2.44c0.84,0,1.44-0.28,1.86-1.01h3.75c-0.62,2.59-3.09,3.77-5.59,3.77c-3.65,0-6.37-2.06-6.37-5.85    c0-3.67,2.51-5.88,6.09-5.88c3.82,0,6.02,2.36,6.02,6.11V53.95z"/>
	</g>
</g>
</svg>